<svg width="409" height="313" viewBox="0 0 409 313" fill="none" xmlns="http://www.w3.org/2000/svg">
<g clip-path="url(#clip0_123_1232)">
<path d="M381.329 269.819L382.028 254.084C389.316 250.185 397.445 248.125 405.709 248.084C394.335 257.391 395.757 275.333 388.046 287.849C385.611 291.734 382.334 295.021 378.457 297.466C374.581 299.912 370.204 301.452 365.652 301.974L356.134 307.807C354.828 300.52 355.116 293.035 356.978 285.87C358.84 278.705 362.232 272.028 366.92 266.301C369.582 263.115 372.634 260.276 376.004 257.853C378.284 263.869 381.329 269.819 381.329 269.819Z" fill="#869479"/>
<path d="M237 311.724C232.152 311.379 230.888 312.336 223.553 311.724H210.107L211.856 279.515L233.024 288.006L338.22 290.591L338.159 290.769C338.111 290.907 333.441 304.581 337.092 309.759L337.243 309.974L336.947 309.977L240.446 310.862C239.393 310.872 238.045 311.798 237 311.724Z" fill="#F2F2F2"/>
<path d="M242.456 312.145C233.091 311.478 223.395 315.122 215.302 311.008L208.832 311.4L208.814 311.346C208.764 311.197 205.708 287.128 211.886 277.797L212.158 277.386L212.37 279.596L210.334 309.578L214.848 308.07C225.811 313.235 238.849 309.824 251.397 309.776L336.791 309.46C338.579 309.454 340.07 310.678 340.117 312.188L340.122 312.336L247.614 312.329C245.889 312.328 244.169 312.267 242.456 312.145Z" fill="#D6C9C5"/>
<path d="M332.29 297.086L236.192 295.174L236.094 295.138L213.39 286.62L213.819 285.475L236.425 293.956L332.314 295.863L332.29 297.086Z" fill="#E6E6E6"/>
<path d="M331.777 302.237L235.68 300.325L235.582 300.288L212.877 291.771L213.306 290.625L235.913 299.106L331.801 301.013L331.777 302.237Z" fill="#E6E6E6"/>
<path d="M331.264 307.388L235.167 305.476L235.069 305.439L212.364 296.921L212.793 295.775L235.4 304.257L331.288 306.165L331.264 307.388Z" fill="#E6E6E6"/>
<path d="M243.12 290.923C234.21 290.321 225.523 287.867 217.612 283.719L210.952 280.183L211.126 278.435C211.174 278.178 211.316 277.949 211.523 277.79C211.731 277.632 211.989 277.556 212.249 277.577L212.837 277.584L302.456 278.905C308.322 278.977 314.134 280.033 319.651 282.028L339.178 289.124L339.167 289.227C339.003 290.874 337.344 292.147 335.39 292.124L247.112 291.089C245.777 291.073 244.446 291.018 243.12 290.923Z" fill="#D6C9C5"/>
<path d="M338.99 289.503L338.97 289.502L231.5 287.037L231.425 287.003L212.049 278.021L212.246 277.721L212.835 277.728L231.68 286.468L338.153 288.908L339.007 288.928L338.99 289.503Z" fill="#BCAAA4"/>
<path d="M255.442 278.357L254.077 278.337L223.278 277.881L221.819 277.861C228.856 285.36 244.416 287.236 267.224 284.331L255.442 278.357Z" fill="#BCAAA4"/>
<path d="M342.036 98.9932L343.914 103.368L340.844 118.904L309.517 114.544L309.767 95.5997L310.396 91.4507L342.036 98.9932Z" fill="#FFB6B6"/>
<path d="M358.221 300.345H351.309L348.02 273.662H358.221V300.345Z" fill="#FFB6B6"/>
<path d="M337.662 309.376C337.663 310.16 337.974 310.911 338.528 311.465C339.082 312.019 339.832 312.331 340.615 312.332H353.764L356.031 307.649L356.911 312.332H361.867L360.474 295.604L358.221 295.473L350.652 295.022L349.432 294.945V299.684L338.938 306.941C338.544 307.213 338.223 307.577 338 308.001C337.778 308.425 337.662 308.897 337.662 309.376Z" fill="#2F2E41"/>
<path d="M294.339 269.757H287.428L283.362 230.473L296.348 229.697L294.339 269.757Z" fill="#FFB6B6"/>
<path d="M273.781 278.787C273.781 279.571 274.092 280.322 274.646 280.876C275.2 281.431 275.95 281.742 276.733 281.743H289.882L292.149 277.06L293.029 281.743H297.985L296.592 265.016L294.582 264.898L286.881 264.433L285.55 264.356V269.095L275.056 276.352C274.662 276.624 274.341 276.988 274.119 277.412C273.896 277.837 273.78 278.308 273.781 278.787Z" fill="#2F2E41"/>
<path d="M361.155 277.335H361.128L359.798 233.949C360.659 232.288 361.095 230.44 361.069 228.57C361.043 226.699 360.556 224.864 359.65 223.228L359.459 222.883L359.953 220.594C360.587 217.653 360.296 214.587 359.12 211.818L357.88 171.347C362.31 142.609 341.198 123.868 341.198 123.868L343.138 108.806L308.99 109.582L309.571 123.868L302.781 147.218C299.208 182.064 275.159 203.967 278.814 237.29C278.822 237.386 278.807 237.482 278.772 237.571C278.402 238.7 278.271 239.894 278.389 241.077C278.507 242.259 278.872 243.404 279.459 244.437C279.611 244.7 279.716 244.988 279.768 245.288C280.521 251.13 280.619 243.741 281.617 249.531L281.423 249.629C280.724 249.871 280.424 250.84 280.753 251.795C281.082 252.749 281.916 253.327 282.615 253.085L300.87 253.281C301.569 253.039 301.869 252.07 301.54 251.115C301.211 250.161 300.377 249.583 299.678 249.824L298.542 250.399L300.442 244.177L301.108 243.555C301.427 243.257 301.675 242.89 301.832 242.482C301.99 242.075 302.053 241.637 302.018 241.202C301.983 240.766 301.849 240.344 301.628 239.968C301.407 239.591 301.103 239.269 300.74 239.027L302.633 228.915L302.364 221.268L302.918 212.593L326.87 177.853L336.561 225.839L346.459 277.818C346.228 278.026 346.055 278.291 345.955 278.586C345.856 278.881 345.834 279.196 345.891 279.502C345.982 279.929 346.219 280.312 346.561 280.583C346.903 280.855 347.329 280.999 347.765 280.991H361.203C361.485 280.991 361.762 280.926 362.015 280.8C362.267 280.675 362.487 280.493 362.658 280.269C362.828 280.044 362.945 279.783 362.998 279.506C363.052 279.23 363.04 278.944 362.965 278.672C362.852 278.281 362.613 277.939 362.286 277.697C361.959 277.455 361.561 277.328 361.155 277.335Z" fill="#2F2E41"/>
<path d="M349.205 25.1687C349.206 27.9387 348.527 30.6667 347.229 33.113C345.931 35.5594 344.053 37.6494 341.759 39.1996C339.466 40.7497 336.827 41.7127 334.075 42.0038C331.323 42.295 328.541 41.9055 325.975 40.8695C323.408 39.8335 321.135 38.1828 319.355 36.0621C317.574 33.9414 316.341 31.4157 315.763 28.7067C315.186 25.9977 315.281 23.1882 316.042 20.5248C316.802 17.8614 318.204 15.4256 320.125 13.4311L320.206 13.35C320.341 13.2078 320.477 13.0657 320.619 12.9302L320.621 12.9298L320.624 12.9283L320.625 12.9261L320.625 12.9235C320.819 12.7818 320.998 12.6208 321.16 12.4429C323.442 9.25061 326.03 6.57385 332.298 8.24613C341.322 10.6537 349.205 15.8206 349.205 25.1687Z" fill="#2F2E41"/>
<path d="M256.332 17.9243C256.294 18.8297 256.454 19.7325 256.802 20.5691C257.15 21.4057 257.677 22.1558 258.346 22.7665C259.015 23.3772 259.81 23.8336 260.674 24.1037C261.538 24.3738 262.451 24.4509 263.348 24.3297L306.95 60.1468L313.61 48.4301L268.657 16.9073C268.353 15.4121 267.512 14.0803 266.293 13.1641C265.075 12.248 263.562 11.8112 262.043 11.9366C260.524 12.062 259.103 12.7408 258.051 13.8443C256.998 14.9479 256.387 16.3996 256.332 17.9243Z" fill="#FFB6B6"/>
<path d="M325.361 70.7096C325.361 70.7096 325.347 69.4197 318.416 69.4693C309.812 69.5309 286.117 57.1671 288.189 45.523C287.205 45.9681 286.101 46.0729 285.051 45.8208C284.001 45.5686 283.065 44.974 282.389 44.1305L293.925 33.0137C297.545 33.2584 297.582 35.6829 297.272 37.075L306.542 40.7624L330.689 54.6479L326.425 68.5955L325.361 70.7096Z" fill="#8B7251"/>
<path d="M328.133 43.2742C335.962 43.2742 342.31 36.921 342.31 29.0839C342.31 21.2468 335.962 14.8936 328.133 14.8936C320.303 14.8936 313.956 21.2468 313.956 29.0839C313.956 36.921 320.303 43.2742 328.133 43.2742Z" fill="#FFB7B7"/>
<path d="M308.648 99.6647C307.865 100.711 307.465 101.995 307.515 103.301C307.566 104.607 308.064 105.856 308.925 106.839C308.932 107.255 308.994 107.657 309.584 109.149C309.661 109.293 309.751 109.431 309.854 109.558C309.873 109.589 309.894 109.619 309.916 109.648C310.537 110.452 311.4 111.033 312.377 111.307L338.328 118.557L341.759 119.514L342.362 119.681L342.695 114.991C343.466 114.35 343.983 113.455 344.153 112.466C344.322 111.477 344.132 110.46 343.617 109.6L343.138 108.809L345.925 101.309L346.195 100.567L353.3 81.4251L353.307 80.1485L353.321 78.8304L353.39 69.6307C353.393 66.7313 352.725 63.8705 351.438 61.2729C350.152 58.6752 348.281 56.4113 345.973 54.6588C343.871 53.0512 341.448 51.9154 338.869 51.3286L338.813 51.3217L336.006 47.5405L324.618 48.6784L323.675 50.614L322.531 52.9452L314.276 57.8641L311.455 64.4273L309.549 68.8676C306.596 70.9906 304.835 73.7172 304.329 76.9641C303.248 83.8603 308.072 90.7635 308.648 91.5544L308.793 99.4706L308.648 99.6647Z" fill="#8B7251"/>
<path d="M342.97 32.8039C342.841 32.7836 342.713 32.7565 342.584 32.7361C340.373 32.3436 338.161 31.9578 335.957 31.5583L335.754 26.5561L333.082 31.0371C326.989 33.061 321.288 31.9171 315.925 29.3923C314.157 28.5517 312.44 27.6046 310.786 26.5561C310.241 18.0961 313.658 12.6801 320.017 13.2481C320.249 13.2689 320.416 13.0316 320.619 12.9299L320.621 12.9294L320.624 12.928L320.625 12.9258L320.626 12.9232C320.97 12.7607 321.322 12.605 321.674 12.4629C324.427 11.386 327.429 11.1132 330.331 11.6764C333.233 12.2396 335.915 13.6155 338.067 15.6443C342.395 19.7803 344.342 26.6102 342.97 32.8039Z" fill="#2F2E41"/>
<path d="M342.584 32.736C342.584 32.736 338.384 17.0455 320.382 13.424C320.362 13.4173 320.294 13.3902 320.206 13.3496C320.152 13.3157 320.084 13.2818 320.017 13.248C320.22 13.1329 320.416 13.0315 320.619 12.9298L320.621 12.9293L320.624 12.9279L320.625 12.9257L320.625 12.9231C320.801 12.7606 320.977 12.5982 321.16 12.4425L321.674 12.4628C321.674 12.4628 339.737 9.59952 342.584 32.736Z" fill="#FD6584"/>
<path d="M349.51 131.646C349.176 131.931 348.771 132.119 348.338 132.189C347.905 132.26 347.461 132.209 347.055 132.044C346.247 131.701 345.529 131.175 344.957 130.508C342.625 128.06 340.959 125.054 340.118 121.778L340.896 120.393C340.59 118.685 340.878 116.924 341.71 115.402C342.542 113.88 343.869 112.689 345.471 112.027C346.382 111.64 347.393 111.552 348.357 111.775C348.835 111.894 349.273 112.14 349.623 112.487C349.973 112.834 350.223 113.27 350.346 113.747C350.646 115.229 349.413 116.566 348.164 117.417C345.989 118.894 343.475 119.795 340.857 120.034C344.059 121.84 346.827 124.327 348.967 127.319C349.461 127.943 349.826 128.66 350.04 129.427C350.142 129.812 350.148 130.216 350.055 130.604C349.963 130.991 349.775 131.349 349.51 131.646Z" fill="#2F2E41"/>
<path d="M170.309 312.835H408.238C408.44 312.835 408.634 312.755 408.777 312.612C408.92 312.469 409 312.275 409 312.072C409 311.87 408.92 311.676 408.777 311.533C408.634 311.39 408.44 311.31 408.238 311.31H170.309C170.107 311.31 169.913 311.39 169.77 311.533C169.627 311.676 169.547 311.87 169.547 312.072C169.547 312.275 169.627 312.469 169.77 312.612C169.913 312.755 170.107 312.835 170.309 312.835Z" fill="#69745E"/>
<path d="M233.498 116.707V117.106C232.641 116.101 231.767 115.104 230.901 114.108C230.537 113.692 230.174 113.276 229.81 112.86C228.269 111.11 226.719 109.365 225.161 107.626C223.594 105.893 222.027 104.16 220.443 102.436C220.062 102.02 219.681 101.604 219.292 101.188C218.98 100.839 218.641 100.514 218.279 100.217C217.913 99.9129 217.493 99.6806 217.041 99.5329C216.52 99.3886 215.971 99.3826 215.448 99.5157C214.85 99.6544 214.279 99.871 213.699 100.053C213.102 100.252 212.513 100.443 211.916 100.633C210.721 101.023 209.535 101.413 208.34 101.803C208.326 101.809 208.311 101.812 208.295 101.812C208.279 101.812 208.264 101.809 208.25 101.803C208.235 101.797 208.222 101.788 208.212 101.777C208.201 101.766 208.192 101.753 208.186 101.738L208.185 101.734C208.178 101.718 208.175 101.7 208.175 101.682C208.176 101.664 208.181 101.647 208.189 101.631C208.197 101.616 208.209 101.602 208.223 101.591C208.237 101.58 208.254 101.573 208.271 101.569C208.566 101.474 208.868 101.379 209.172 101.283C210.375 100.885 211.569 100.495 212.773 100.105C213.37 99.9056 213.967 99.715 214.565 99.5244C215.119 99.3137 215.704 99.1966 216.296 99.1777C217.263 99.2473 218.17 99.6734 218.842 100.374C219.214 100.72 219.551 101.084 219.889 101.457C220.287 101.89 220.685 102.323 221.084 102.756C222.685 104.507 224.275 106.263 225.854 108.025C227.438 109.793 229.008 111.563 230.563 113.337C230.676 113.467 230.788 113.597 230.901 113.727C231.775 114.714 232.632 115.711 233.498 116.707Z" fill="white"/>
<path d="M218.144 101.814C217.817 101.392 217.381 101.068 216.884 100.876L216.391 100.893C220.255 106.911 225.317 112.067 231.261 116.039C226.889 111.297 222.517 106.556 218.144 101.814Z" fill="white"/>
<path d="M298.78 164.355L279.168 59.2471C278.832 57.5144 277.919 55.9472 276.577 54.8026C275.234 53.6579 273.544 53.0036 271.781 52.947C271.623 52.9435 271.464 52.9435 271.305 52.947L257.945 53.4267L256.507 53.4796L249.84 53.7195L248.402 53.7689L244.113 53.9241L157.629 57.0318C157.499 57.0388 157.365 57.0388 157.235 57.0353L137.855 56.6296L130.684 56.4815L130.454 56.478L125.161 56.3651L79.0366 55.4056L66.8077 55.1481L60.7778 55.0246L59.3329 54.9929L52.4572 54.8517L51.0158 54.82L43.9815 54.6754L42.5401 54.6436L34.8116 54.4814L33.5993 54.4567L26.706 54.3121L25.617 54.2909H25.4584C23.6284 54.2983 21.86 54.9532 20.4657 56.1396C19.0714 57.3261 18.1411 58.9677 17.8392 60.7744L0.101936 169.844C-0.0781847 170.949 -0.0161714 172.08 0.283665 173.158C0.583502 174.237 1.11398 175.237 1.83839 176.09C2.56281 176.943 3.46381 177.628 4.47899 178.098C5.49417 178.568 6.59926 178.811 7.71769 178.811H109.581C111.08 178.815 112.539 179.297 113.746 180.187L115.678 181.619C117.009 182.599 118.617 183.131 120.27 183.136C139.943 177.938 160.627 177.938 180.301 183.136C181.315 183.138 182.32 182.939 183.257 182.551C184.194 182.162 185.044 181.591 185.759 180.871C186.982 179.647 188.614 178.92 190.341 178.829L291.598 173.488C292.696 173.431 293.769 173.139 294.745 172.633C295.721 172.126 296.578 171.417 297.258 170.552C297.938 169.687 298.426 168.687 298.688 167.618C298.951 166.55 298.982 165.437 298.78 164.355Z" fill="#D6C9C5"/>
<path d="M271.031 147.965C270.901 151.527 269.364 154.891 266.756 157.319C264.149 159.746 260.685 161.038 257.126 160.91C251.247 160.702 244.23 160.598 236.615 160.757C211.745 161.289 180.5 164.715 161.706 177.036C159.344 178.588 156.552 179.355 153.73 179.227C153.522 179.214 153.32 179.202 153.112 179.184C150.186 178.916 147.428 177.693 145.265 175.703C134.911 166.22 111.166 154.737 56.8116 153.93C56.5855 153.93 56.3654 153.918 56.1454 153.905C54.3849 153.794 52.6636 153.337 51.0797 152.56C49.4958 151.783 48.0804 150.701 46.9145 149.376C45.7486 148.051 44.855 146.509 44.2848 144.838C43.7146 143.168 43.479 141.401 43.5914 139.639L48.9333 54.7799L49.7339 42.0611L51.1397 19.811C51.2814 17.5702 52.2701 15.4675 53.9049 13.9301C55.5396 12.3927 57.6978 11.5358 59.941 11.5337H59.996L92.3774 11.7233C106.019 12.3412 117.318 14.0807 126.275 16.9418C129.334 17.8913 132.31 19.0903 135.174 20.5268C139.085 22.4247 142.599 25.0512 145.527 28.2657C147.352 30.3192 149.84 31.6642 152.556 32.0648C152.977 32.1278 153.402 32.1666 153.827 32.181C156.332 32.2848 158.804 31.5767 160.875 30.1622C182.028 15.9752 225.136 14.8985 248.942 15.5102C252.272 15.588 255.453 16.9034 257.866 19.2003C260.28 21.4972 261.752 24.611 261.998 27.9353L262.963 40.5929L263.923 53.2137L269.46 126.155L271.001 146.448C271.038 146.953 271.049 147.459 271.031 147.965Z" fill="#F2F2F2"/>
<path d="M64.8675 41.3942C84.3813 35.1625 106.152 36.8123 124.638 45.5914C129.913 48.0834 134.895 51.1545 139.491 54.7482C140.792 55.7697 142.642 53.9425 141.328 52.9101C124.348 39.7278 103.014 33.4656 81.6105 35.3817C75.6892 35.9121 69.8435 37.0876 64.177 38.8874C62.5907 39.394 63.2688 41.9047 64.8675 41.3942Z" fill="#3F3D56"/>
<path d="M172.245 55.7566C190.388 46.2116 212.114 44.1301 231.84 49.5483C237.464 51.0893 242.898 53.2522 248.044 55.9971C249.518 56.7844 250.832 54.5412 249.355 53.7524C230.554 43.7113 207.986 41.3998 187.456 46.9971C181.729 48.5614 176.189 50.7459 170.935 53.5119C169.455 54.2906 170.766 56.535 172.245 55.7566Z" fill="#3F3D56"/>
<path d="M172.245 73.0871C190.388 63.5421 212.114 61.4607 231.84 66.8788C237.464 68.4198 242.898 70.5828 248.044 73.3277C249.518 74.115 250.832 71.8717 249.355 71.083C230.554 61.0418 207.986 58.7303 187.456 64.3277C181.729 65.892 176.189 68.0765 170.935 70.8425C169.455 71.6211 170.766 73.8656 172.245 73.0871Z" fill="#3F3D56"/>
<path d="M249.99 89.488C250.004 89.2648 249.95 89.0427 249.836 88.8506C249.722 88.6584 249.553 88.5051 249.35 88.4105C234.289 80.5167 217.213 77.3151 200.319 79.2177C200.213 79.2262 200.115 79.2431 200.001 79.2516H199.996C199.892 79.2609 199.789 79.2765 199.687 79.2983C189.639 80.4557 179.891 83.463 170.935 88.1687C170.74 88.2851 170.578 88.4503 170.466 88.6481C170.354 88.846 170.295 89.0696 170.295 89.2971V121.627C170.298 121.826 170.347 122.021 170.437 122.199C170.527 122.376 170.656 122.531 170.814 122.651C170.972 122.771 171.156 122.854 171.351 122.892C171.546 122.931 171.747 122.925 171.94 122.874C172.338 122.759 172.736 122.649 173.143 122.543C182.197 120.09 191.491 118.635 200.861 118.203C201.06 118.195 201.259 118.186 201.467 118.178C209.099 117.85 216.744 118.125 224.332 119.001C224.491 119.01 224.65 119.027 224.807 119.052C225.197 119.094 225.595 119.141 225.985 119.192C226.142 119.209 226.29 119.225 226.434 119.251C227.952 119.442 229.456 119.658 230.965 119.892C233.143 120.239 235.322 120.627 237.5 121.054C237.636 121.079 237.776 121.113 237.916 121.139C241.412 121.834 244.892 122.64 248.354 123.531C248.547 123.581 248.749 123.586 248.944 123.547C249.139 123.507 249.323 123.424 249.481 123.303C249.639 123.182 249.768 123.027 249.858 122.849C249.948 122.671 249.996 122.475 249.999 122.276V89.5388C250 89.5214 249.997 89.504 249.99 89.488Z" fill="#3F3D56"/>
<path d="M202.355 80.9803C201.403 80.5138 200.313 80.4179 199.295 80.7112C198.845 80.88 198.433 81.1365 198.083 81.4659C197.733 81.7952 197.452 82.1909 197.256 82.6299C196.903 83.4716 196.677 84.361 196.585 85.2691C196.532 85.6263 196.528 86.0771 196.887 86.2438C197.017 86.2911 197.158 86.3019 197.294 86.275C197.429 86.2481 197.555 86.1845 197.658 86.0911C197.843 85.9083 197.996 85.6951 198.109 85.4607C198.732 84.4908 199.589 83.6936 200.601 83.1429C201.613 82.5921 202.748 82.3056 203.9 82.3096L204.858 82.6922C204.104 82.0121 203.262 81.4363 202.355 80.9803Z" fill="#FF6582"/>
<path d="M212.732 88.4318C211.988 87.3353 211.106 86.1647 209.725 85.8067C208.126 85.3921 206.484 86.2157 205.09 87.0285C200.947 89.4437 196.934 92.0776 193.07 94.9189L193.074 94.9615L202.044 94.4104C204.204 94.2777 206.439 94.1267 208.348 93.2162C209.033 92.786 209.799 92.5005 210.599 92.3771C211.095 92.404 211.581 92.529 212.029 92.7448C212.476 92.9607 212.877 93.2631 213.207 93.6347C217.341 97.5566 218.537 103.554 223.174 107C220.223 100.526 216.73 94.315 212.732 88.4318Z" fill="white"/>
<path d="M201.469 118.177C201.261 118.185 201.062 118.194 200.863 118.203C199.417 117.683 197.937 117.224 196.439 116.825C195.469 116.565 194.482 116.331 193.495 116.132C192.379 115.889 191.253 115.699 190.128 115.534C187.985 115.222 185.826 115.04 183.661 114.988C183.645 114.99 183.628 114.988 183.612 114.983C183.597 114.978 183.582 114.97 183.57 114.959C183.558 114.948 183.548 114.934 183.541 114.919C183.534 114.904 183.531 114.888 183.531 114.871C183.531 114.855 183.534 114.838 183.541 114.823C183.548 114.808 183.558 114.795 183.57 114.784C183.582 114.772 183.597 114.764 183.612 114.759C183.628 114.754 183.645 114.752 183.661 114.754C183.938 114.754 184.215 114.763 184.483 114.78C186.653 114.86 188.815 115.072 190.959 115.413C192.076 115.595 193.193 115.811 194.301 116.054C195.305 116.279 196.309 116.531 197.296 116.808C198.707 117.206 200.098 117.663 201.469 118.177Z" fill="white"/>
<path d="M226.436 119.251C226.289 119.225 226.141 119.208 225.986 119.191C225.388 118.697 224.782 118.229 224.15 117.77C223.362 117.198 222.549 116.66 221.718 116.158C219.877 115.04 217.956 114.061 215.969 113.229C212.829 111.92 209.578 110.893 206.256 110.161C202.466 109.33 198.63 108.729 194.768 108.359C190.907 107.96 187.029 107.718 183.15 107.475C182.986 107.467 182.977 107.224 183.15 107.233C183.635 107.267 184.12 107.293 184.613 107.328C188.535 107.571 192.457 107.848 196.352 108.29C200.215 108.704 204.047 109.37 207.823 110.283C211.047 111.078 214.193 112.16 217.225 113.515C218.968 114.299 220.657 115.199 222.28 116.21C223.31 116.86 224.306 117.553 225.258 118.289C225.657 118.601 226.055 118.913 226.436 119.251Z" fill="white"/>
<path d="M224.808 119.052C224.651 119.027 224.492 119.009 224.332 119C224.15 118.853 223.96 118.714 223.77 118.576C222.437 117.621 221.046 116.75 219.605 115.967C218.297 115.256 216.953 114.611 215.58 114.035C212.441 112.722 209.19 111.696 205.866 110.968C202.077 110.137 198.24 109.535 194.378 109.165C190.517 108.767 186.639 108.524 182.761 108.281C182.596 108.264 182.596 108.03 182.761 108.039C183.254 108.073 183.739 108.099 184.224 108.134C188.145 108.377 192.067 108.654 195.963 109.096C199.825 109.51 203.657 110.176 207.433 111.089C210.658 111.883 213.804 112.964 216.835 114.321C217.978 114.841 219.095 115.404 220.185 116.019C221.803 116.908 223.349 117.922 224.808 119.052Z" fill="white"/>
<path d="M237.915 121.141C237.777 121.115 237.638 121.08 237.5 121.054C237.344 120.889 237.197 120.716 237.049 120.543C236.305 119.685 235.569 118.818 234.842 117.943C231.976 114.529 229.258 111.011 226.696 107.424C224.497 104.356 222.41 101.228 220.436 98.0392C219.493 96.5315 218.584 95.0064 217.692 93.464C217 92.2682 216.324 91.0696 215.666 89.868C215.476 89.5213 215.294 89.1747 215.112 88.8281C214.688 88.0135 214.264 87.1904 213.814 86.3845C213.324 85.3972 212.606 84.5415 211.719 83.8889C211.275 83.5917 210.762 83.4155 210.23 83.3777C209.479 83.3805 208.741 83.5711 208.083 83.9322C203.239 86.1899 198.67 88.9955 194.465 92.2942C190.358 95.4917 186.644 99.1654 183.401 103.238C183.297 103.36 183.072 103.247 183.168 103.117C183.557 102.632 183.955 102.146 184.353 101.67C187.47 97.98 190.98 94.6415 194.82 91.7136C194.829 91.7049 194.846 91.6963 194.855 91.6877C195.192 91.419 195.53 91.1591 195.876 90.9078C198.02 89.3275 200.252 87.8694 202.56 86.5405C203.737 85.8559 204.94 85.206 206.169 84.5908C206.472 84.4349 206.784 84.2789 207.096 84.1316C207.407 83.9756 207.719 83.8284 208.031 83.6809C208.648 83.3661 209.322 83.1804 210.013 83.1351C212.42 83.1004 213.658 85.5267 214.515 87.1644C214.783 87.6757 215.06 88.1869 215.329 88.6981C216.368 90.6305 217.45 92.5542 218.575 94.4519C219.259 95.6303 219.969 96.8002 220.688 97.9613C221.718 99.6164 222.774 101.254 223.873 102.883C223.873 102.884 223.873 102.885 223.874 102.886C223.874 102.887 223.875 102.888 223.876 102.889C223.876 102.89 223.877 102.891 223.878 102.891C223.879 102.892 223.88 102.892 223.882 102.892C225.154 104.816 226.479 106.704 227.847 108.585C230.193 111.8 232.652 114.942 235.223 118.013C236.106 119.07 237.003 120.112 237.915 121.141Z" fill="white"/>
<path d="M207.029 82.8705L206.79 82.9753C206.241 82.0482 205.472 81.2711 204.551 80.7131C203.631 80.155 202.586 79.8334 201.511 79.7767C197.967 79.5247 194.853 81.8889 194.57 85.0465C194.456 86.3467 194.832 87.6428 195.624 88.6791L195.402 88.8106C194.576 87.7314 194.185 86.3816 194.304 85.0276C194.599 81.7393 197.841 79.2773 201.532 79.5397C202.652 79.5987 203.739 79.9337 204.698 80.5148C205.657 81.0959 206.458 81.9051 207.029 82.8705Z" fill="#FF6582"/>
<path d="M189.516 89.2594C188.586 88.8545 187.573 88.6769 186.56 88.7414C185.548 88.8059 184.566 89.1106 183.694 89.6304C186.875 90.1189 190.029 90.7746 193.141 91.5948C191.852 90.9219 190.844 89.8677 189.516 89.2594Z" fill="white"/>
<path d="M183.676 89.6274L183.326 89.8811C183.445 89.7923 183.568 89.7091 183.694 89.6303L183.676 89.6274Z" fill="white"/>
<path d="M194.225 91.0986C194.085 90.9599 193.947 90.8213 193.806 90.6826C192.728 89.5088 191.431 88.5584 189.987 87.8854C189.252 87.5755 188.463 87.4126 187.666 87.406C186.842 87.4252 186.027 87.5836 185.255 87.8743C184.893 88.0034 184.538 88.15 184.188 88.3062C183.789 88.4852 183.397 88.6762 183.006 88.8688C182.273 89.2301 181.55 89.6073 180.836 90.0003C179.415 90.7825 178.04 91.6243 176.708 92.5258C176.018 92.9933 175.342 93.4762 174.68 93.9743C174.065 94.4371 173.462 94.9123 172.871 95.3999C172.745 95.5037 172.556 95.3357 172.683 95.2319C172.838 95.1027 172.996 94.9743 173.153 94.8476C173.598 94.4894 174.05 94.1381 174.509 93.7937C175.346 93.1645 176.204 92.5596 177.084 91.979C178.453 91.0757 179.869 90.2336 181.332 89.4528C182.063 89.0629 182.804 88.6894 183.556 88.3323C183.783 88.2245 184.012 88.1191 184.244 88.0193C184.774 87.7814 185.321 87.583 185.881 87.4258C186.683 87.1956 187.522 87.1222 188.352 87.2095C189.147 87.311 189.919 87.5487 190.633 87.9123C192.048 88.7063 193.325 89.7255 194.414 90.9299C194.528 91.0439 194.34 91.2127 194.225 91.0986Z" fill="white"/>
<path d="M64.8675 58.7247C84.3813 52.4931 106.152 54.1429 124.638 62.922C129.913 65.4139 134.895 68.4851 139.491 72.0788C140.792 73.1003 142.642 71.2731 141.328 70.2406C124.348 57.0584 103.014 50.7962 81.6105 52.7123C75.6892 53.2426 69.8435 54.4182 64.177 56.218C62.5907 56.7246 63.2688 59.2353 64.8675 58.7247Z" fill="#3F3D56"/>
<path d="M64.8675 76.0548C84.3813 69.8231 106.152 71.4729 124.638 80.2521C129.913 82.744 134.895 85.8151 139.491 89.4089C140.792 90.4304 142.642 88.6032 141.328 87.5707C124.348 74.3884 103.014 68.1263 81.6105 70.0424C75.6892 70.5727 69.8435 71.7483 64.177 73.5481C62.5907 74.0546 63.2688 76.5654 64.8675 76.0548Z" fill="#3F3D56"/>
<path d="M64.8675 93.3854C84.3813 87.1537 106.152 88.8035 124.638 97.5827C129.913 100.075 134.895 103.146 139.491 106.739C140.792 107.761 142.642 105.934 141.328 104.901C124.348 91.719 103.014 85.4568 81.6105 87.3729C75.6892 87.9033 69.8435 89.0788 64.177 90.8787C62.5907 91.3852 63.2688 93.8959 64.8675 93.3854Z" fill="#3F3D56"/>
<path d="M64.8675 110.716C84.3813 104.484 106.152 106.134 124.638 114.913C129.913 117.405 134.895 120.476 139.491 124.07C140.792 125.092 142.642 123.264 141.328 122.232C124.348 109.05 103.014 102.787 81.6105 104.703C75.6892 105.234 69.8435 106.409 64.177 108.209C62.5907 108.716 63.2688 111.227 64.8675 110.716Z" fill="#3F3D56"/>
<path d="M64.8675 128.046C84.3813 121.814 106.152 123.464 124.638 132.243C129.913 134.735 134.895 137.806 139.491 141.4C140.792 142.422 142.642 140.594 141.328 139.562C124.348 126.38 103.014 120.117 81.6105 122.034C75.6892 122.564 69.8435 123.739 64.177 125.539C62.5907 126.046 63.2688 128.557 64.8675 128.046Z" fill="#3F3D56"/>
<path d="M135.174 20.5269V62.0846C135.174 62.9105 133.731 63.6017 131.788 63.7914C131.771 63.7904 131.754 63.7925 131.739 63.7975C131.415 63.822 131.072 63.8403 130.724 63.8403C129.653 63.86 128.586 63.686 127.576 63.3265C127.485 63.2898 127.393 63.2469 127.301 63.2102C127.216 63.1613 127.124 63.1185 127.039 63.0695C126.556 62.782 126.275 62.4455 126.275 62.0846V16.9419C129.334 17.8914 132.31 19.0905 135.174 20.5269Z" fill="#FF3B30"/>
<path d="M153.826 30.1655H152.555V178.358H153.826V30.1655Z" fill="#E6E6E6"/>
<path d="M292.093 131.613C292.995 131.531 293.867 131.251 294.649 130.795C295.431 130.338 296.104 129.716 296.619 128.971C297.135 128.226 297.481 127.377 297.634 126.483C297.786 125.59 297.741 124.674 297.501 123.8L323.892 111.47L339.779 85.7454L327.291 80.6987L316.573 101.428L289.445 119.523C288.005 120.023 286.798 121.034 286.053 122.365C285.308 123.697 285.077 125.255 285.404 126.745C285.73 128.236 286.591 129.554 287.824 130.451C289.057 131.349 290.576 131.762 292.093 131.613Z" fill="#FFB6B6"/>
<path d="M349.58 61.1021C349.58 61.1021 352.69 62.1183 349.276 68.1566C346.543 72.9908 333.231 100.836 327.797 106.303C328.369 107.22 328.62 108.302 328.51 109.377C328.4 110.452 327.936 111.46 327.191 112.242L314.647 102.279C314.408 98.6556 316.803 98.2961 318.223 98.4184L321.109 88.1813L331.174 62.9281L347.345 60.3276L349.58 61.1021Z" fill="#8B7251"/>
<path d="M349.851 13.7699C350.444 11.3698 354.746 9.5976 347.376 6.24674C345.588 5.43351 345.662 2.63295 344.149 1.37875C342.636 0.124558 340.42 -0.456902 338.661 0.419731C337.091 1.20256 336.206 2.97413 336.018 4.71995C335.927 6.47706 336.13 8.23697 336.617 9.9274L336.474 10.1363C339.394 12.3724 342.313 14.6085 345.233 16.8445C346.306 17.6662 347.708 18.5266 348.91 17.91C350.271 17.2121 349.484 15.2558 349.851 13.7699Z" fill="#2F2E41"/>
</g>
<defs>
<clipPath id="clip0_123_1232">
<rect width="409" height="313" fill="white"/>
</clipPath>
</defs>
</svg>
